<mxfile host="Electron" agent="Mozilla/5.0 (Windows NT 10.0; Win64; x64) AppleWebKit/537.36 (KHTML, like Gecko) draw.io/26.2.15 Chrome/134.0.6998.205 Electron/35.2.1 Safari/537.36" version="26.2.15">
  <diagram id="C5RBs43oDa-KdzZeNtuy" name="Page-1">
    <mxGraphModel dx="1240" dy="1907" grid="1" gridSize="10" guides="1" tooltips="1" connect="1" arrows="1" fold="1" page="1" pageScale="1" pageWidth="827" pageHeight="1169" math="0" shadow="0">
      <root>
        <mxCell id="WIyWlLk6GJQsqaUBKTNV-0" />
        <mxCell id="WIyWlLk6GJQsqaUBKTNV-1" parent="WIyWlLk6GJQsqaUBKTNV-0" />
        <mxCell id="12b25j_I1tRnPgW9eJPA-3" value="Login Request" style="rounded=1;whiteSpace=wrap;html=1;" vertex="1" parent="WIyWlLk6GJQsqaUBKTNV-1">
          <mxGeometry x="530" y="-430" width="100" height="50" as="geometry" />
        </mxCell>
        <mxCell id="12b25j_I1tRnPgW9eJPA-11" value="Verify Email" style="rounded=0;whiteSpace=wrap;html=1;" vertex="1" parent="WIyWlLk6GJQsqaUBKTNV-1">
          <mxGeometry x="910" y="-410" width="120" height="40" as="geometry" />
        </mxCell>
        <mxCell id="12b25j_I1tRnPgW9eJPA-18" value="DB" style="shape=cylinder3;whiteSpace=wrap;html=1;boundedLbl=1;backgroundOutline=1;size=15;" vertex="1" parent="WIyWlLk6GJQsqaUBKTNV-1">
          <mxGeometry x="970" width="230" height="290" as="geometry" />
        </mxCell>
        <mxCell id="12b25j_I1tRnPgW9eJPA-22" value="Verification code" style="rounded=1;whiteSpace=wrap;html=1;" vertex="1" parent="WIyWlLk6GJQsqaUBKTNV-1">
          <mxGeometry x="170" y="-480" width="120" height="60" as="geometry" />
        </mxCell>
        <mxCell id="12b25j_I1tRnPgW9eJPA-24" value="Verify user if code is correct" style="rounded=1;whiteSpace=wrap;html=1;" vertex="1" parent="WIyWlLk6GJQsqaUBKTNV-1">
          <mxGeometry x="520" y="-614" width="120" height="60" as="geometry" />
        </mxCell>
        <mxCell id="12b25j_I1tRnPgW9eJPA-21" value="Save unverified user" style="rounded=1;whiteSpace=wrap;html=1;" vertex="1" parent="WIyWlLk6GJQsqaUBKTNV-1">
          <mxGeometry x="860" y="-674" width="120" height="60" as="geometry" />
        </mxCell>
        <mxCell id="12b25j_I1tRnPgW9eJPA-33" value="Client" style="rounded=0;whiteSpace=wrap;html=1;" vertex="1" parent="WIyWlLk6GJQsqaUBKTNV-1">
          <mxGeometry x="361.3" width="120" height="60" as="geometry" />
        </mxCell>
        <mxCell id="12b25j_I1tRnPgW9eJPA-34" value="&#xa;&lt;span style=&quot;color: rgb(255, 255, 255); font-family: Helvetica; font-size: 12px; font-style: normal; font-variant-ligatures: normal; font-variant-caps: normal; font-weight: 400; letter-spacing: normal; orphans: 2; text-align: center; text-indent: 0px; text-transform: none; widows: 2; word-spacing: 0px; -webkit-text-stroke-width: 0px; white-space: normal; background-color: rgb(27, 29, 30); text-decoration-thickness: initial; text-decoration-style: initial; text-decoration-color: initial; display: inline !important; float: none;&quot;&gt;Client&lt;/span&gt;&#xa;&#xa;" style="rounded=0;whiteSpace=wrap;html=1;" vertex="1" parent="WIyWlLk6GJQsqaUBKTNV-1">
          <mxGeometry x="361.3" y="240" width="120" height="60" as="geometry" />
        </mxCell>
        <mxCell id="12b25j_I1tRnPgW9eJPA-35" value="" style="endArrow=none;html=1;rounded=0;entryX=0.5;entryY=1;entryDx=0;entryDy=0;exitX=0.5;exitY=0;exitDx=0;exitDy=0;strokeWidth=12;" edge="1" parent="WIyWlLk6GJQsqaUBKTNV-1" source="12b25j_I1tRnPgW9eJPA-34" target="12b25j_I1tRnPgW9eJPA-33">
          <mxGeometry width="50" height="50" relative="1" as="geometry">
            <mxPoint x="281.3" y="60" as="sourcePoint" />
            <mxPoint x="331.3" y="10" as="targetPoint" />
          </mxGeometry>
        </mxCell>
        <mxCell id="12b25j_I1tRnPgW9eJPA-37" value="Ev Store BE" style="rounded=1;whiteSpace=wrap;html=1;" vertex="1" parent="WIyWlLk6GJQsqaUBKTNV-1">
          <mxGeometry x="650" width="120" height="60" as="geometry" />
        </mxCell>
        <mxCell id="12b25j_I1tRnPgW9eJPA-39" value="Ev Store BE" style="rounded=1;whiteSpace=wrap;html=1;" vertex="1" parent="WIyWlLk6GJQsqaUBKTNV-1">
          <mxGeometry x="650" y="240" width="120" height="60" as="geometry" />
        </mxCell>
        <mxCell id="12b25j_I1tRnPgW9eJPA-40" value="" style="endArrow=none;html=1;rounded=0;entryX=0.5;entryY=1;entryDx=0;entryDy=0;exitX=0.5;exitY=0;exitDx=0;exitDy=0;strokeWidth=12;" edge="1" parent="WIyWlLk6GJQsqaUBKTNV-1">
          <mxGeometry width="50" height="50" relative="1" as="geometry">
            <mxPoint x="709.5699999999999" y="240" as="sourcePoint" />
            <mxPoint x="709.5699999999999" y="60" as="targetPoint" />
          </mxGeometry>
        </mxCell>
        <mxCell id="12b25j_I1tRnPgW9eJPA-41" value="" style="endArrow=classic;html=1;rounded=0;" edge="1" parent="WIyWlLk6GJQsqaUBKTNV-1">
          <mxGeometry width="50" height="50" relative="1" as="geometry">
            <mxPoint x="430" y="80" as="sourcePoint" />
            <mxPoint x="700" y="80" as="targetPoint" />
          </mxGeometry>
        </mxCell>
        <mxCell id="12b25j_I1tRnPgW9eJPA-42" value="Send Register Request" style="edgeLabel;html=1;align=center;verticalAlign=middle;resizable=0;points=[];" vertex="1" connectable="0" parent="12b25j_I1tRnPgW9eJPA-41">
          <mxGeometry x="-0.113" y="-3" relative="1" as="geometry">
            <mxPoint x="-9" as="offset" />
          </mxGeometry>
        </mxCell>
        <mxCell id="12b25j_I1tRnPgW9eJPA-43" value="" style="endArrow=classic;html=1;rounded=0;" edge="1" parent="WIyWlLk6GJQsqaUBKTNV-1">
          <mxGeometry width="50" height="50" relative="1" as="geometry">
            <mxPoint x="700" y="120" as="sourcePoint" />
            <mxPoint x="430" y="120" as="targetPoint" />
          </mxGeometry>
        </mxCell>
        <mxCell id="12b25j_I1tRnPgW9eJPA-46" value="Send Verification Code email" style="edgeLabel;html=1;align=center;verticalAlign=middle;resizable=0;points=[];" vertex="1" connectable="0" parent="12b25j_I1tRnPgW9eJPA-43">
          <mxGeometry x="0.2261" y="3" relative="1" as="geometry">
            <mxPoint x="3" y="-3" as="offset" />
          </mxGeometry>
        </mxCell>
        <mxCell id="12b25j_I1tRnPgW9eJPA-47" value="" style="endArrow=classic;html=1;rounded=0;" edge="1" parent="WIyWlLk6GJQsqaUBKTNV-1">
          <mxGeometry width="50" height="50" relative="1" as="geometry">
            <mxPoint x="430" y="160" as="sourcePoint" />
            <mxPoint x="700" y="160" as="targetPoint" />
          </mxGeometry>
        </mxCell>
        <mxCell id="12b25j_I1tRnPgW9eJPA-48" value="Send verification Code" style="edgeLabel;html=1;align=center;verticalAlign=middle;resizable=0;points=[];" vertex="1" connectable="0" parent="12b25j_I1tRnPgW9eJPA-47">
          <mxGeometry x="-0.1079" y="-1" relative="1" as="geometry">
            <mxPoint as="offset" />
          </mxGeometry>
        </mxCell>
        <mxCell id="12b25j_I1tRnPgW9eJPA-49" value="" style="endArrow=classic;html=1;rounded=0;" edge="1" parent="WIyWlLk6GJQsqaUBKTNV-1">
          <mxGeometry width="50" height="50" relative="1" as="geometry">
            <mxPoint x="710" y="200" as="sourcePoint" />
            <mxPoint x="430" y="200" as="targetPoint" />
          </mxGeometry>
        </mxCell>
        <mxCell id="12b25j_I1tRnPgW9eJPA-52" value="Send Tokens" style="edgeLabel;html=1;align=center;verticalAlign=middle;resizable=0;points=[];" vertex="1" connectable="0" parent="12b25j_I1tRnPgW9eJPA-49">
          <mxGeometry x="0.1211" y="3" relative="1" as="geometry">
            <mxPoint as="offset" />
          </mxGeometry>
        </mxCell>
        <mxCell id="12b25j_I1tRnPgW9eJPA-53" value="" style="endArrow=classic;html=1;rounded=0;entryX=0;entryY=0;entryDx=0;entryDy=80;entryPerimeter=0;" edge="1" parent="WIyWlLk6GJQsqaUBKTNV-1" target="12b25j_I1tRnPgW9eJPA-18">
          <mxGeometry width="50" height="50" relative="1" as="geometry">
            <mxPoint x="720" y="80" as="sourcePoint" />
            <mxPoint x="640" y="110" as="targetPoint" />
          </mxGeometry>
        </mxCell>
        <mxCell id="12b25j_I1tRnPgW9eJPA-54" value="Save Unverified User" style="edgeLabel;html=1;align=center;verticalAlign=middle;resizable=0;points=[];" vertex="1" connectable="0" parent="12b25j_I1tRnPgW9eJPA-53">
          <mxGeometry x="-0.0638" relative="1" as="geometry">
            <mxPoint as="offset" />
          </mxGeometry>
        </mxCell>
        <mxCell id="12b25j_I1tRnPgW9eJPA-55" value="" style="endArrow=classic;html=1;rounded=0;entryX=0.006;entryY=0.573;entryDx=0;entryDy=0;entryPerimeter=0;" edge="1" parent="WIyWlLk6GJQsqaUBKTNV-1" target="12b25j_I1tRnPgW9eJPA-18">
          <mxGeometry width="50" height="50" relative="1" as="geometry">
            <mxPoint x="720" y="160" as="sourcePoint" />
            <mxPoint x="920" y="160" as="targetPoint" />
          </mxGeometry>
        </mxCell>
        <mxCell id="12b25j_I1tRnPgW9eJPA-57" value="Update User Verification Status" style="edgeLabel;html=1;align=center;verticalAlign=middle;resizable=0;points=[];" vertex="1" connectable="0" parent="12b25j_I1tRnPgW9eJPA-55">
          <mxGeometry x="-0.0021" y="1" relative="1" as="geometry">
            <mxPoint as="offset" />
          </mxGeometry>
        </mxCell>
        <mxCell id="12b25j_I1tRnPgW9eJPA-58" value="" style="endArrow=classic;html=1;rounded=0;entryX=-0.006;entryY=0.696;entryDx=0;entryDy=0;entryPerimeter=0;" edge="1" parent="WIyWlLk6GJQsqaUBKTNV-1" target="12b25j_I1tRnPgW9eJPA-18">
          <mxGeometry width="50" height="50" relative="1" as="geometry">
            <mxPoint x="720" y="200" as="sourcePoint" />
            <mxPoint x="917" y="200" as="targetPoint" />
          </mxGeometry>
        </mxCell>
        <mxCell id="12b25j_I1tRnPgW9eJPA-59" value="Generate and Save Tokens for user" style="edgeLabel;html=1;align=center;verticalAlign=middle;resizable=0;points=[];" vertex="1" connectable="0" parent="12b25j_I1tRnPgW9eJPA-58">
          <mxGeometry x="-0.0044" y="-1" relative="1" as="geometry">
            <mxPoint as="offset" />
          </mxGeometry>
        </mxCell>
        <mxCell id="12b25j_I1tRnPgW9eJPA-60" value="User Register and verification FLow&lt;div&gt;&lt;br&gt;&lt;/div&gt;" style="text;html=1;align=center;verticalAlign=middle;whiteSpace=wrap;rounded=0;" vertex="1" parent="WIyWlLk6GJQsqaUBKTNV-1">
          <mxGeometry x="540" y="-140" width="400" height="100" as="geometry" />
        </mxCell>
      </root>
    </mxGraphModel>
  </diagram>
</mxfile>
